# xmcd
#
# Track frame offsets:
#  150
#  20007
#  42265
#  59210
#  80125
#  102462
#  124195
#  142870
#  166690
#  184082
#
# Disc length: 2711 seconds
#
# Revision: 0
# Processed by: cddbd v1.4PL0 Copyright (c) Steve Scherf et al.
# Submitted via: AltoMP3_Maker 3.0
#
DISCID=8b0a950a
DTITLE=คาราบาว - ขุนศึก
DYEAR=1900
DGENRE=
TTITLE0=ขุนศึก
TTITLE1=พระนเรศวรมหาราช
TTITLE2=ไก่คู่บ้าน
TTITLE3=เจ้าตาก
TTITLE4=มินตะยา
TTITLE5=บางระจันวันเพ็ญ
TTITLE6=แม่ไม้มวยไทย
TTITLE7=เหลืองหางขาว
TTITLE8=นายขนมต้ม
TTITLE9=ดอนเจดีย์
EXTD=
EXTT0=
EXTT1=
EXTT2=
EXTT3=
EXTT4=
EXTT5=
EXTT6=
EXTT7=
EXTT8=
EXTT9=
PLAYORDER=
